<svg xmlns="http://www.w3.org/2000/svg"  viewBox="0 0 32 32" width="64px" height="64px" baseProfile="basic"><linearGradient id="KA3iPnJF2lqt7U2-W-Vona" x1="16" x2="16" y1="4.905" y2="27.01" gradientUnits="userSpaceOnUse"><stop offset="0" stop-color="#00b5f0"/><stop offset="1" stop-color="#008cc7"/></linearGradient><path fill="url(#KA3iPnJF2lqt7U2-W-Vona)" d="M26,27H6c-1.105,0-2-0.895-2-2V7c0-1.105,0.895-2,2-2h4.027c0.623,0,1.22,0.247,1.66,0.688	l0.624,0.624C12.753,6.753,13.35,7,13.973,7H26c1.105,0,2,0.895,2,2v16C28,26.105,27.105,27,26,27z"/><linearGradient id="KA3iPnJF2lqt7U2-W-Vonb" x1="16" x2="16" y1="5" y2="27" gradientUnits="userSpaceOnUse"><stop offset="0" stop-opacity=".02"/><stop offset="1" stop-opacity=".15"/></linearGradient><path fill="url(#KA3iPnJF2lqt7U2-W-Vonb)" d="M26,7H13.973	c-0.623,0-1.22-0.247-1.66-0.688l-0.625-0.625C11.247,5.247,10.65,5,10.027,5H6C4.895,5,4,5.895,4,7v18c0,1.105,0.895,2,2,2h20	c1.105,0,2-0.895,2-2V9C28,7.895,27.105,7,26,7z M27.75,25c0,0.965-0.785,1.75-1.75,1.75H6c-0.965,0-1.75-0.785-1.75-1.75V7	c0-0.965,0.785-1.75,1.75-1.75h4.027c0.56,0,1.087,0.218,1.484,0.615l0.625,0.625c0.491,0.491,1.143,0.761,1.837,0.761H26	c0.965,0,1.75,0.785,1.75,1.75V25z"/><linearGradient id="KA3iPnJF2lqt7U2-W-Vonc" x1="16" x2="16" y1="8.922" y2="27.008" gradientUnits="userSpaceOnUse"><stop offset="0" stop-color="#00dcff"/><stop offset=".859" stop-color="#00bfff"/><stop offset="1" stop-color="#00a8e0"/></linearGradient><path fill="url(#KA3iPnJF2lqt7U2-W-Vonc)" d="M27,27H5c-1.105,0-2-0.895-2-2V11	c0-1.105,0.895-2,2-2h22c1.105,0,2,0.895,2,2v14C29,26.105,28.105,27,27,27z"/><linearGradient id="KA3iPnJF2lqt7U2-W-Vond" x1="16" x2="16" y1="9" y2="27" gradientUnits="userSpaceOnUse"><stop offset="0" stop-opacity=".02"/><stop offset="1" stop-opacity=".15"/></linearGradient><path fill="url(#KA3iPnJF2lqt7U2-W-Vond)" d="M27,9H5c-1.105,0-2,0.895-2,2v14	c0,1.105,0.895,2,2,2h22c1.105,0,2-0.895,2-2V11C29,9.895,28.105,9,27,9z M28.75,25c0,0.965-0.785,1.75-1.75,1.75H5	c-0.965,0-1.75-0.785-1.75-1.75V11c0-0.965,0.785-1.75,1.75-1.75h22c0.965,0,1.75,0.785,1.75,1.75V25z"/></svg>